<svg width="256" height="256" viewBox="0 0 256 256" xmlns="http://www.w3.org/2000/svg">
  <defs>
    <linearGradient id="bg" x1="0" y1="0" x2="1" y2="1">
      <stop offset="0" stop-color="#4E8CF6"/>
      <stop offset="1" stop-color="#2054D6"/>
    </linearGradient>
  </defs>
  <rect x="12" y="12" width="232" height="232" rx="46" fill="url(#bg)"/>
  <rect x="12" y="12" width="232" height="150" rx="46" fill="#ffffff" opacity="0.10"/>
  <rect x="56" y="70" width="108" height="130" rx="16" fill="#0A1636" opacity="0.24"/>
  <rect x="54" y="64" width="108" height="130" rx="16" fill="#ffffff"/>
  <rect x="64" y="78" width="88" height="24" rx="7" fill="#DBE8FF"/>
  <rect x="72" y="87" width="56" height="7" rx="3.5" fill="#2563EB"/>
  <rect x="72" y="118" width="70" height="7" rx="3.5" fill="#9CA5B5"/>
  <rect x="72" y="139" width="70" height="7" rx="3.5" fill="#9CA5B5"/>
  <rect x="72" y="160" width="48" height="7" rx="3.5" fill="#9CA5B5"/>
  <polygon points="150,92 150,143.8 164.7,131.9 173.8,155 182.9,150.8 173.1,128.4 189.2,127"
           fill="#ffffff" stroke="#122C68" stroke-width="7" stroke-linejoin="round"/>
</svg>
